<?xml version="1.0" encoding="UTF-8" standalone="no"?>
<svg
   xmlns:dc="http://purl.org/dc/elements/1.1/"
   xmlns:cc="http://creativecommons.org/ns#"
   xmlns:rdf="http://www.w3.org/1999/02/22-rdf-syntax-ns#"
   xmlns:svg="http://www.w3.org/2000/svg"
   xmlns="http://www.w3.org/2000/svg"
   id="svg118"
   xml:space="preserve"
   viewBox="0 0 324 324"
   height="324"
   width="324"
   version="1.1"><metadata
     id="metadata122"><rdf:RDF><cc:Work
         rdf:about=""><dc:format>image/svg+xml</dc:format><dc:type
           rdf:resource="http://purl.org/dc/dcmitype/StillImage" /></cc:Work></rdf:RDF></metadata><desc
     id="desc2">Created with Fabric.js 2.4.6</desc><defs
     id="defs4" /><g
     id="g8"
     transform="matrix(4.45,0,0,4.45,162.53,162.43)"><path
       id="rect6"
       d="M -36,-36 H 36 V 36 H -36 Z"
       style="opacity:1;fill:#000000;fill-rule:nonzero;stroke:none;stroke-width:1;stroke-linecap:butt;stroke-linejoin:miter;stroke-miterlimit:4;stroke-dasharray:none;stroke-dashoffset:0" /></g><g
     id="g96"
     transform="matrix(2.41,0,0,2.41,157.89,95.1)"><linearGradient
       y2="-52"
       x2="-52.235001"
       y1="52"
       x1="52.235001"
       gradientUnits="userSpaceOnUse"
       id="SVGID_71"><stop
         id="stop10"
         style="stop-color:rgb(0,0,255);stop-opacity: 1"
         offset="0%" /><stop
         id="stop12"
         style="stop-color:rgb(255,255,255);stop-opacity: 1"
         offset="100%" /></linearGradient><g
       id="g22"
       transform="matrix(4.47,0,0,4.47,-8.11,19.13)"><linearGradient
         y2="1.02705"
         x2="0"
         y1="20.02705"
         x1="18.742399"
         gradientUnits="userSpaceOnUse"
         id="SVGID_62"><stop
           id="stop15"
           style="stop-color:rgb(0,0,255);stop-opacity: 1"
           offset="0%" /><stop
           id="stop17"
           style="stop-color:rgb(255,255,255);stop-opacity: 1"
           offset="100%" /></linearGradient><path
         id="path20"
         d="M 0,12.4936 C 5.8566,7.2348 13.2814,10.8984 18.7424,8.5605 11.8222,12.3424 5.8638,7.9985 0,12.4936 Z"
         transform="translate(-9.37,-10.53)"
         style="opacity:1;fill:url(#SVGID_62);fill-rule:nonzero;stroke:none;stroke-width:1;stroke-linecap:butt;stroke-linejoin:miter;stroke-miterlimit:4;stroke-dasharray:none;stroke-dashoffset:0" /></g><g
       id="g31"
       transform="matrix(4.47,0,0,4.47,32.19,12.92)"><linearGradient
         y2="5.13765"
         x2="14.4004"
         y1="13.13765"
         x1="22.3652"
         gradientUnits="userSpaceOnUse"
         id="SVGID_63"><stop
           id="stop24"
           style="stop-color:rgb(0,0,255);stop-opacity: 1"
           offset="0%" /><stop
           id="stop26"
           style="stop-color:rgb(255,255,255);stop-opacity: 1"
           offset="100%" /></linearGradient><path
         id="path29"
         d="m 19.6187,8.2517 c 0.5362,0.2665 0.9556,0.4023 1.3124,0.4137 -0.1422,-0.1343 -0.2715,-0.345 -0.2234,-0.8633 0.0423,0.385 0.2415,0.6322 0.4834,0.8725 0.078,0.0041 0.1524,0.0106 0.2238,0.0226 -0.0477,-0.1162 -0.0701,-0.2913 -0.0435,-0.5779 0.0292,0.2659 0.1333,0.4661 0.2746,0.6437 0.1942,0.0842 0.3663,0.2483 0.5303,0.5752 0.104,0.0517 0.147,0.1733 0.1889,0.2615 -2.2049,-0.6975 -5.9053,0.4269 -7.9648,0.8735 C 16.6934,9.8324 18.5571,8.5405 22.037,9.333 21.4463,8.5979 20.5081,9.1443 19.6187,8.2517 Z"
         transform="translate(-18.38,-9.14)"
         style="opacity:1;fill:url(#SVGID_63);fill-rule:nonzero;stroke:none;stroke-width:1;stroke-linecap:butt;stroke-linejoin:miter;stroke-miterlimit:4;stroke-dasharray:none;stroke-dashoffset:0" /></g><g
       id="g40"
       transform="matrix(4.47,0,0,4.47,22.3,-8.89)"><linearGradient
         y2="0.75889999"
         x2="12.7685"
         y1="7.7589002"
         x1="19.5753"
         gradientUnits="userSpaceOnUse"
         id="SVGID_64"><stop
           id="stop33"
           style="stop-color:rgb(0,0,255);stop-opacity: 1"
           offset="0%" /><stop
           id="stop35"
           style="stop-color:rgb(255,255,255);stop-opacity: 1"
           offset="100%" /></linearGradient><path
         id="path38"
         d="m 12.7685,0 c 0.2358,5.8209 5.3834,5.4286 6.8068,8.5178 C 19.1694,4.8293 14.453,5.6605 12.7685,0 Z"
         transform="translate(-16.17,-4.26)"
         style="opacity:1;fill:url(#SVGID_64);fill-rule:nonzero;stroke:none;stroke-width:1;stroke-linecap:butt;stroke-linejoin:miter;stroke-miterlimit:4;stroke-dasharray:none;stroke-dashoffset:0" /></g><g
       id="g49"
       transform="matrix(4.47,0,0,4.47,23.43,-1.17)"><linearGradient
         y2="3.4863999"
         x2="13.9178"
         y1="8.4863997"
         x1="18.931299"
         gradientUnits="userSpaceOnUse"
         id="SVGID_65"><stop
           id="stop42"
           style="stop-color:rgb(0,0,255);stop-opacity: 1"
           offset="0%" /><stop
           id="stop44"
           style="stop-color:rgb(255,255,255);stop-opacity: 1"
           offset="100%" /></linearGradient><path
         id="path47"
         d="m 13.9178,3.8345 c 0.3409,3.1731 3.6867,2.7504 5.0135,4.3038 C 18.4329,6.4106 15.0439,6.3576 13.9178,3.8345 Z"
         transform="translate(-16.42,-5.99)"
         style="opacity:1;fill:url(#SVGID_65);fill-rule:nonzero;stroke:none;stroke-width:1;stroke-linecap:butt;stroke-linejoin:miter;stroke-miterlimit:4;stroke-dasharray:none;stroke-dashoffset:0" /></g><g
       id="g58"
       transform="matrix(4.47,0,0,4.47,21.33,2.04)"><linearGradient
         y2="4.7030501"
         x2="13.7721"
         y1="8.7030497"
         x1="18.134199"
         gradientUnits="userSpaceOnUse"
         id="SVGID_66"><stop
           id="stop51"
           style="stop-color:rgb(0,0,255);stop-opacity: 1"
           offset="0%" /><stop
           id="stop53"
           style="stop-color:rgb(255,255,255);stop-opacity: 1"
           offset="100%" /></linearGradient><path
         id="path56"
         d="m 13.7721,4.9085 c 0.3296,2.6851 3.3167,2.303 4.3621,3.5891 -0.4179,-1.4543 -3.4483,-1.475 -4.3621,-3.5891 z"
         transform="translate(-15.95,-6.7)"
         style="opacity:1;fill:url(#SVGID_66);fill-rule:nonzero;stroke:none;stroke-width:1;stroke-linecap:butt;stroke-linejoin:miter;stroke-miterlimit:4;stroke-dasharray:none;stroke-dashoffset:0" /></g><g
       id="g67"
       transform="matrix(4.47,0,0,4.47,20.32,4.77)"><linearGradient
         y2="5.8143001"
         x2="13.9854"
         y1="8.8142996"
         x1="17.4716"
         gradientUnits="userSpaceOnUse"
         id="SVGID_67"><stop
           id="stop60"
           style="stop-color:rgb(0,0,255);stop-opacity: 1"
           offset="0%" /><stop
           id="stop62"
           style="stop-color:rgb(255,255,255);stop-opacity: 1"
           offset="100%" /></linearGradient><path
         id="path65"
         d="m 13.9854,6.0493 c 0.3751,2.0284 2.631,1.5995 3.4862,2.53 -0.3854,-1.0876 -2.6929,-0.9632 -3.4862,-2.53 z"
         transform="translate(-15.73,-7.31)"
         style="opacity:1;fill:url(#SVGID_67);fill-rule:nonzero;stroke:none;stroke-width:1;stroke-linecap:butt;stroke-linejoin:miter;stroke-miterlimit:4;stroke-dasharray:none;stroke-dashoffset:0" /></g><g
       id="g76"
       transform="matrix(4.47,0,0,4.47,21.21,8.5)"><linearGradient
         y2="7.1482496"
         x2="15.008472"
         y1="9.1482496"
         x1="16.8437"
         gradientUnits="userSpaceOnUse"
         id="SVGID_68"><stop
           id="stop69"
           style="stop-color:rgb(0,0,255);stop-opacity: 1"
           offset="0%" /><stop
           id="stop71"
           style="stop-color:rgb(255,255,255);stop-opacity: 1"
           offset="100%" /></linearGradient><path
         id="path74"
         d="M 16.8437,8.5981 C 15.9336,8.568 14.9488,8.2998 15.0113,7.7092 c 0.0884,-0.0961 1.5332,0.4694 1.8324,0.8889 z"
         transform="translate(-15.93,-8.15)"
         style="opacity:1;fill:url(#SVGID_68);fill-rule:nonzero;stroke:none;stroke-width:1;stroke-linecap:butt;stroke-linejoin:miter;stroke-miterlimit:4;stroke-dasharray:none;stroke-dashoffset:0" /></g><g
       id="g85"
       transform="matrix(4.47,0,0,4.47,12.59,5.56)"><linearGradient
         y2="4.4905772"
         x2="11.2052"
         y1="10.490578"
         x1="16.792299"
         gradientUnits="userSpaceOnUse"
         id="SVGID_69"><stop
           id="stop78"
           style="stop-color:rgb(0,0,255);stop-opacity: 1"
           offset="0%" /><stop
           id="stop80"
           style="stop-color:rgb(255,255,255);stop-opacity: 1"
           offset="100%" /></linearGradient><path
         id="path83"
         d="m 11.2052,6.017 c 0.3125,3.6854 3.4752,2.8861 5.5871,2.8496 C 14.0092,8.0673 12.3768,9.036 11.2052,6.017 Z"
         transform="translate(-14,-7.49)"
         style="opacity:1;fill:url(#SVGID_69);fill-rule:nonzero;stroke:none;stroke-width:1;stroke-linecap:butt;stroke-linejoin:miter;stroke-miterlimit:4;stroke-dasharray:none;stroke-dashoffset:0" /></g><g
       id="g94"
       transform="matrix(4.47,0,0,4.47,6.32,6.49)"><linearGradient
         y2="5.6978002"
         x2="10.394849"
         y1="9.6977997"
         x1="14.7972"
         gradientUnits="userSpaceOnUse"
         id="SVGID_70"><stop
           id="stop87"
           style="stop-color:rgb(0,0,255);stop-opacity: 1"
           offset="0%" /><stop
           id="stop89"
           style="stop-color:rgb(255,255,255);stop-opacity: 1"
           offset="100%" /></linearGradient><path
         id="path92"
         d="M 10.4068,6.1625 C 10.1406,9.8749 14.4056,9.1291 14.7972,9.2331 13.0657,8.6892 11.0629,9.3338 10.4068,6.1625 Z"
         transform="translate(-12.6,-7.7)"
         style="opacity:1;fill:url(#SVGID_70);fill-rule:nonzero;stroke:none;stroke-width:1;stroke-linecap:butt;stroke-linejoin:miter;stroke-miterlimit:4;stroke-dasharray:none;stroke-dashoffset:0" /></g></g><g
     id="g102"
     transform="translate(161.64,185.97)"><g
       id="text100"
       style="font-style:normal;font-weight:normal;font-size:39px;font-family:Lora;white-space:pre;opacity:1;fill:#ffffff;fill-rule:nonzero;stroke:none;stroke-width:1;stroke-linecap:butt;stroke-linejoin:miter;stroke-miterlimit:4;stroke-dasharray:none;stroke-dashoffset:0"
       aria-label="INNOV~MÉCA"><path
         id="path125"
         style=""
         d="m -127.995,10.963 q 1.365,-0.039 1.95,-0.624 0.585,-0.585 0.663,-1.365 0.078,-0.819 0.078,-2.808 v -16.848 q 0,-1.638 0.117,-2.808 l -2.808,0.156 v -1.716 h 8.775 v 1.287 q -1.365,0.039 -1.95,0.624 -0.585,0.585 -0.663,1.404 -0.078,0.78 -0.078,2.769 V 7.609 q 0,2.067 -0.117,3.081 l 2.808,-0.156 v 1.716 h -8.775 z" /><path
         id="path127"
         style=""
         d="m -110.48644,-9.863 h -0.039 l 0.117,16.692 q 0,2.613 -0.078,3.861 l 2.808,-0.156 v 1.716 h -7.137 v -1.287 q 1.56,0 2.067,-0.897 0.507,-0.897 0.507,-2.184 l 0.039,-21.372 -2.613,0.156 v -1.716 h 4.641 l 16.614003,22.23 h 0.039 l 0.039,-17.862 q 0,-1.638 0.117,-2.808 l -2.808,0.156 v -1.716 h 7.176 v 1.287 q -1.17,0.039 -1.755,0.468 -0.546,0.39 -0.702,1.092 -0.156,0.702 -0.156,1.872 v 1.365 l -0.078,21.84 h -1.872 z" /><path
         id="path129"
         style=""
         d="m -80.779406,-9.863 h -0.039 l 0.117,16.692 q 0,2.613 -0.078,3.861 l 2.808,-0.156 v 1.716 h -7.137 v -1.287 q 1.56,0 2.067,-0.897 0.507,-0.897 0.507,-2.184 l 0.039,-21.372 -2.613,0.156 v -1.716 h 4.641 l 16.614,22.23 h 0.039 l 0.039,-17.862 q 0,-1.638 0.117,-2.808 l -2.808,0.156 v -1.716 h 7.176 v 1.287 q -1.17,0.039 -1.755,0.468 -0.546,0.39 -0.702,1.092 -0.156,0.702 -0.156,1.872 v 1.365 l -0.078,21.84 h -1.872 z" /><path
         id="path131"
         style=""
         d="m -42.17489,12.874 q -4.68,0 -7.8,-2.067 -3.12,-2.067 -4.602,-5.304 -1.482,-3.276 -1.482,-6.903 0,-3.471 1.521,-6.747 1.56,-3.276 4.602,-5.382 3.081,-2.145 7.449,-2.145 4.485,0 7.605,2.145 3.159,2.106 4.719,5.382 1.56,3.276 1.56,6.747 0,3.432 -1.56,6.747 -1.521,3.276 -4.602,5.421 -3.042,2.106 -7.41,2.106 z m 0.078,-1.599 q 3.042,0 5.187,-1.716 2.184,-1.755 3.276,-4.485 1.131,-2.73 1.131,-5.733 0,-3.315 -1.209,-6.396 -1.209,-3.12 -3.51,-5.07 -2.301,-1.989 -5.382,-1.989 -3.042,0 -5.226,1.755 -2.184,1.716 -3.315,4.485 -1.092,2.769 -1.092,5.772 0,3.081 1.131,6.201 1.131,3.081 3.432,5.148 2.301,2.028 5.577,2.028 z" /><path
         id="path133"
         style=""
         d="m -23.602968,-8.108 q -1.404,-3.315 -1.677,-5.304 l -2.184,0.078 v -1.716 h 9.048 v 1.287 l -0.039,0.039 q -1.287,0.078 -1.911,0.585 -0.585,0.468 -0.585,1.404 0,0.897 0.546,2.223 l 1.014,2.496 q 0.39,0.975 1.17,2.964 0.819,1.989 1.521,3.627 l 1.014,2.379 q 1.521,3.471 2.145,5.148 h 0.078 l 1.443,-4.173 0.507,-1.404 3.4319999,-9.633 0.897,-2.496 q 0.741,-2.106 1.131,-2.886 l -3.003,0.156 v -1.716 h 7.917 v 1.287 q -1.716,0.078 -2.652,0.897 -0.897,0.819 -1.638,2.925 L -13.657968,12.64 h -1.092 z" /><path
         id="path135"
         style=""
         d="m 13.460438,3.241 q -1.365,0 -2.34,-0.39 -0.936,-0.429 -2.0669999,-1.209 -1.053,-0.663 -1.794,-0.975 -0.702,-0.351 -1.677,-0.351 -1.443,0 -2.457,0.468 -1.014,0.429 -2.33999999,1.404 v -2.457 q 1.36499999,-1.092 2.41799999,-1.56 1.092,-0.507 2.535,-0.507 1.482,0 2.418,0.429 0.975,0.39 2.1059999,1.209 0.936,0.663 1.638,1.014 0.702,0.312 1.716,0.312 2.418,0 4.485,-1.872 v 2.457 q -1.833,2.028 -4.641,2.028 z" /><path
         id="path137"
         style=""
         d="m 35.420485,7.765 q -2.964,-6.591 -4.602,-10.374 -1.638,-3.822 -3.198,-8.034 l -0.039,1.716 q -0.351,11.427 -0.429,16.302 0,0.585 -0.039,0.858 0,1.326 -0.117,2.457 l 2.925,-0.156 v 1.716 h -7.449 v -1.287 q 1.638,-0.039 2.106,-0.897 0.507,-0.897 0.585,-2.691 l 0.858,-20.865 -2.808,0.117 v -1.677 h 5.967 l 5.304,12.246 q 2.886,6.786 4.446,10.296 h 0.078 q 0.468,-1.17 1.989,-5.031 1.482,-3.744 3.393,-8.229 2.223,-5.226 3.822,-9.282 h 5.772 v 1.287 q -1.404,-0.039 -2.067,0.78 -0.663,0.78 -0.663,2.691 l 0.039,0.78 1.014,17.745 q 0.078,0.897 0.078,2.418 l 2.847,-0.117 v 1.716 h -8.736 v -1.287 q 1.521,-0.039 2.067,-0.858 0.546,-0.858 0.546,-2.652 0,-0.741 -0.039,-1.131 l -1.014,-16.614 q -0.078,0.195 -0.234,0.507 -0.117,0.312 -0.273,0.741 l -8.775,21.684 h -1.17 z" /><path
         id="path139"
         style=""
         d="m 58.702266,10.963 q 1.365,-0.039 1.95,-0.624 0.585,-0.585 0.663,-1.365 0.078,-0.819 0.078,-2.808 v -16.848 q 0,-1.638 0.117,-2.808 l -2.808,0.156 v -1.716 h 18.759 l 0.195,6.825 h -1.287 q 0,-3.198 -1.404,-4.368 -1.365,-1.17 -3.861,-1.092 l -3.354,0.078 q -1.404,0.039 -2.028,0.546 -0.624,0.468 -0.78,1.365 -0.156,0.858 -0.156,2.73 v 6.24 l 7.332,0.039 -0.273,-3.354 h 1.716 v 8.19 h -1.287 q 0,-1.443 -0.351,-2.184 -0.351,-0.78 -1.092,-1.014 -0.702,-0.273 -1.989,-0.273 l -1.209,0.039 -2.847,0.117 v 8.931 q 0,2.028 -0.117,3.042 l 7.449,-0.117 q 2.73,-0.039 4.173,-1.365 1.443,-1.365 1.443,-4.68 h 1.326 l -0.234,7.605 h -20.124 z m 14.859,-31.824 q 1.248,-0.78 1.248,-1.716 0,-0.507 -0.234,-0.819 -0.117,-0.156 -0.429,-0.312 -0.273,-0.195 -0.663,-0.195 -0.702,0 -1.521,0.702 l -4.914,4.68 0.858,1.131 z" /><path
         id="path141"
         style=""
         d="m 95.833922,12.874 q -3.822,0 -6.864,-1.833 -3.003,-1.833 -4.719,-4.992 -1.677,-3.159 -1.677,-7.02 0,-3.822 1.521,-7.176 1.56,-3.354 4.602,-5.421 3.081,-2.106 7.41,-2.106 4.289998,0 7.877998,2.379 l -0.195,-2.106 h 2.106 v 9.048 h -1.404 q -0.39,-3.627 -2.574,-5.655 -2.144998,-2.067 -5.537998,-2.067 -2.769,0 -5.07,1.56 -2.262,1.521 -3.588,4.368 -1.326,2.847 -1.326,6.591 0,3.588 1.404,6.435 1.404,2.808 3.783,4.407 2.379,1.56 5.265,1.56 2.613,0 5.030998,-1.17 2.418,-1.17 3.978,-3.315 l 1.014,0.819 q -2.262,3.159 -5.187,4.446 -2.924998,1.248 -5.849998,1.248 z" /><path
         id="path143"
         style=""
         d="m 107.43459,10.963 q 0.975,0 1.56,-0.429 0.585,-0.468 0.936,-1.17 0.39,-0.741 0.897,-2.184 l 0.39,-1.092 8.034,-21.879 h 0.936 l 8.697,22.191 q 0.429,1.053 0.741,2.301 0.312,1.209 0.273,1.989 l 2.652,-0.156 v 1.716 h -8.931 v -1.287 q 2.301,-0.039 2.301,-1.872 0,-0.741 -0.39,-1.833 l -1.365,-3.666 -10.14,0.234 q -0.585,1.599 -1.365,4.173 -0.39,1.287 -0.975,2.691 l 3.042,-0.156 v 1.716 h -7.293 z m 16.185,-8.814 -2.769,-7.449 -1.755,-4.797 h -0.078 l -1.638,4.407 -2.106,5.928 -0.663,1.911 z" /></g></g><g
     id="g108"
     transform="translate(160.41,226.28)"><g
       id="text106"
       style="font-style:normal;font-weight:normal;font-size:29px;font-family:Lora;white-space:pre;opacity:1;fill:#ffffff;fill-rule:nonzero;stroke:none;stroke-width:1;stroke-linecap:butt;stroke-linejoin:miter;stroke-miterlimit:4;stroke-dasharray:none;stroke-dashoffset:0"
       aria-label="CRÉER &amp; OPTIMISER"><path
         id="path146"
         style=""
         d="m -131.716,9.5739997 q -2.842,0 -5.104,-1.363 -2.233,-1.363 -3.509,-3.712 -1.247,-2.349 -1.247,-5.22000004 0,-2.84199996 1.131,-5.33599996 1.16,-2.494 3.422,-4.0309997 2.291,-1.566 5.51,-1.566 3.19,0 5.858,1.7689997 L -125.8,-11.451 h 1.566 v 6.7279997 h -1.044 q -0.29,-2.697 -1.914,-4.205 -1.595,-1.5369997 -4.118,-1.5369997 -2.059,0 -3.77,1.1599997 -1.682,1.131 -2.668,3.248 -0.986,2.117 -0.986,4.901 0,2.668 1.044,4.785 1.044,2.088 2.813,3.277 1.769,1.16 3.915,1.16 1.943,0 3.741,-0.87 1.798,-0.87 2.958,-2.465 l 0.754,0.609 q -1.682,2.349 -3.857,3.306 -2.175,0.928 -4.35,0.928 z" /><path
         id="path148"
         style=""
         d="m -121.03766,8.1529997 q 1.015,-0.029 1.45,-0.464 0.435,-0.435 0.493,-1.015 0.058,-0.609 0.058,-2.088 v -12.528 q 0,-1.218 0.087,-2.0879997 l -2.088,0.1159997 V -11.19 q 3.016,-0.058 4.553,-0.058 1.392,0 2.088,0.029 4.089,0.058 5.974,1.3919997 1.914,1.305 1.914,3.799 0.029,2.001 -1.189,3.596 -1.218,1.59499996 -4.234,2.20399996 0.493,0.377 0.899,0.899 0.406,0.52200004 1.102,1.62400004 l 1.972,3.103 q 0.638,1.015 1.044,1.566 0.435,0.522 1.015,0.87 0.609,0.319 1.479,0.319 v 0.957 h -3.654 q -0.783,-0.667 -1.334,-1.363 -0.522,-0.725 -1.247,-1.856 l -1.943,-3.103 -0.377,-0.609 q -0.464,-0.783 -0.812,-1.27600004 -0.348,-0.493 -0.754,-0.87 -0.261,0.029 -0.812,0.029 -0.783,0 -1.16,-0.029 V 5.6589997 q 0,1.537 -0.087,2.291 l 2.088,-0.116 v 1.276 h -6.525 z m 5.8,-9.193 q 5.916,0 5.916,-4.669 0,-2.204 -1.276,-3.306 -1.276,-1.1019997 -3.915,-1.1019997 -1.015,0 -1.45,0.4059997 -0.435,0.406 -0.493,0.986 -0.058,0.58 -0.058,2.059 v 5.568 q 0.87,0.058 1.276,0.058 z" /><path
         id="path150"
         style=""
         d="m -102.79938,8.1529997 q 1.015,-0.029 1.45,-0.464 0.435,-0.435 0.493,-1.015 0.058,-0.609 0.058,-2.088 v -12.528 q 0,-1.218 0.087,-2.0879997 l -2.088,0.1159997 V -11.19 h 13.949001 l 0.145,5.0749997 h -0.957 q 0,-2.378 -1.044,-3.248 -1.015,-0.8699997 -2.871,-0.8119997 l -2.494,0.058 q -1.044,0.029 -1.508,0.4059997 -0.464,0.348 -0.58,1.015 -0.116,0.638 -0.116,2.03 v 4.64 l 5.452,0.029 -0.203,-2.494 h 1.276 v 6.09 h -0.957 q 0,-1.07300004 -0.261,-1.62400004 -0.261,-0.58 -0.812,-0.754 -0.522,-0.203 -1.479,-0.203 l -0.899,0.029 -2.117,0.087 V 5.7749997 q 0,1.508 -0.087,2.262 l 5.539,-0.087 q 2.03,-0.029 3.103,-1.015 1.073,-1.015 1.073,-3.48 h 0.986 l -0.174,5.655 H -102.79938 Z M -91.750379,-15.511 q 0.928,-0.58 0.928,-1.276 0,-0.377 -0.174,-0.609 -0.087,-0.116 -0.319,-0.232 -0.203,-0.145 -0.493,-0.145 -0.522,0 -1.131,0.522 l -3.654,3.48 0.638,0.841 z" /><path
         id="path152"
         style=""
         d="m -84.78766,8.1529997 q 1.015,-0.029 1.45,-0.464 0.435,-0.435 0.493,-1.015 0.058,-0.609 0.058,-2.088 v -12.528 q 0,-1.218 0.087,-2.0879997 l -2.088,0.1159997 V -11.19 h 13.949 l 0.145,5.0749997 h -0.957 q 0,-2.378 -1.044,-3.248 -1.015,-0.8699997 -2.871,-0.8119997 l -2.494,0.058 q -1.044,0.029 -1.508,0.4059997 -0.464,0.348 -0.58,1.015 -0.116,0.638 -0.116,2.03 v 4.64 l 5.452,0.029 -0.203,-2.494 h 1.276 v 6.09 h -0.957 q 0,-1.07300004 -0.261,-1.62400004 -0.261,-0.58 -0.812,-0.754 -0.522,-0.203 -1.479,-0.203 l -0.899,0.029 -2.117,0.087 V 5.7749997 q 0,1.508 -0.087,2.262 l 5.539,-0.087 q 2.03,-0.029 3.103,-1.015 1.073,-1.015 1.073,-3.48 h 0.986 l -0.174,5.655 h -14.964 z" /><path
         id="path154"
         style=""
         d="m -66.775941,8.1529997 q 1.015,-0.029 1.45,-0.464 0.435,-0.435 0.493,-1.015 0.058,-0.609 0.058,-2.088 v -12.528 q 0,-1.218 0.087,-2.0879997 l -2.088,0.1159997 V -11.19 q 3.016,-0.058 4.553,-0.058 1.392,0 2.088,0.029 4.089,0.058 5.974,1.3919997 1.914,1.305 1.914,3.799 0.029,2.001 -1.189,3.596 -1.218,1.59499996 -4.234,2.20399996 0.493,0.377 0.899,0.899 0.406,0.52200004 1.102,1.62400004 l 1.972,3.103 q 0.638,1.015 1.044,1.566 0.435,0.522 1.015,0.87 0.609,0.319 1.479,0.319 v 0.957 h -3.654 q -0.783,-0.667 -1.334,-1.363 -0.522,-0.725 -1.247,-1.856 l -1.943,-3.103 -0.377,-0.609 q -0.464,-0.783 -0.812,-1.27600004 -0.348,-0.493 -0.754,-0.87 -0.261,0.029 -0.812,0.029 -0.783,0 -1.16,-0.029 V 5.6589997 q 0,1.537 -0.087,2.291 l 2.088,-0.116 v 1.276 h -6.525 z m 5.8,-9.193 q 5.916,0 5.916,-4.669 0,-2.204 -1.276,-3.306 -1.276,-1.1019997 -3.915,-1.1019997 -1.015,0 -1.45,0.4059997 -0.435,0.406 -0.493,0.986 -0.058,0.58 -0.058,2.059 v 5.568 q 0.87,0.058 1.276,0.058 z" /><path
         id="path156"
         style=""
         d="m -34.627176,9.5739997 q -1.798,0 -3.364,-0.58 -1.537,-0.609 -2.494,-1.885 -0.957,-1.276 -0.957,-3.219 0,-1.827 1.189,-3.27700004 1.218,-1.479 3.364,-2.40699996 -1.16,-1.479 -1.682,-2.697 -0.522,-1.247 -0.522,-2.61 0.029,-2.059 1.508,-3.3059997 1.508,-1.247 3.857,-1.247 1.421,0 2.523,0.551 1.102,0.522 1.711,1.4499997 0.609,0.928 0.609,2.059 0,1.682 -1.131,3.103 -1.102,1.392 -3.625,2.668 0.696,0.754 2.32,2.43599996 1.247,1.30500004 3.045,2.98700004 0.29,-0.986 0.29,-1.856 0,-1.16000004 -0.522,-2.00100004 -0.493,-0.84099996 -1.682,-0.89899996 v -0.957 h 5.075 v 1.18899996 l -2.407,-0.11599996 q 0.899,0.78299996 0.899,2.61 0,1.45 -0.58,2.987 l 0.58,0.522 q 0.406,0.377 0.87,0.783 1.247,1.131 2.204,1.711 0.957,0.58 1.45,0.58 v 0.957 h -2.697 q -0.319,0 -1.276,-0.609 -0.957,-0.609 -2.32,-1.798 -2.233,2.871 -6.235,2.871 z m 0.348,-12.093 q 1.566,-1.044 2.378,-2.349 0.812,-1.305 0.812,-2.639 0,-1.421 -0.754,-2.32 -0.725,-0.8989997 -2.03,-0.8989997 -1.218,0 -2.001,0.8989997 -0.783,0.899 -0.783,2.494 0,2.175 2.378,4.814 z m 0.29,10.643 q 2.958,0 4.669,-2.233 -0.58,-0.522 -0.841,-0.783 l -0.435,-0.406 q -0.435,-0.435 -2.436,-2.378 -1.972,-1.97200004 -3.103,-3.27700004 -1.247,0.754 -1.827,2.03000004 -0.58,1.247 -0.58,2.378 0,2.32 1.334,3.509 1.334,1.16 3.219,1.16 z" /><path
         id="path158"
         style=""
         d="m -3.0176287,9.5739997 q -3.48,0 -5.8,-1.537 -2.3200003,-1.537 -3.4220003,-3.944 -1.102,-2.436 -1.102,-5.133 0,-2.581 1.131,-5.017 1.16,-2.436 3.4220003,-4.0019997 2.291,-1.595 5.539,-1.595 3.33500004,0 5.655,1.595 2.349,1.5659997 3.509,4.0019997 1.16,2.436 1.16,5.017 0,2.552 -1.16,5.017 -1.131,2.436 -3.422,4.031 -2.26199996,1.566 -5.51,1.566 z m 0.058,-1.189 q 2.26200004,0 3.85700004,-1.276 1.62399996,-1.305 2.43599996,-3.335 0.841,-2.03 0.841,-4.26300004 0,-2.46499996 -0.899,-4.75599996 -0.899,-2.32 -2.60999996,-3.77 Q -1.0456287,-10.494 -3.3366287,-10.494 q -2.262,0 -3.886,1.3049997 -1.624,1.276 -2.465,3.335 -0.8120003,2.059 -0.8120003,4.292 0,2.29099996 0.8410003,4.611 0.841,2.291 2.552,3.828 1.711,1.508 4.147,1.508 z" /><path
         id="path160"
         style=""
         d="m 9.6889026,8.1529997 q 1.0150004,-0.029 1.4500004,-0.464 0.435,-0.435 0.493,-1.015 0.058,-0.609 0.058,-2.088 v -12.528 q 0,-1.218 0.087,-2.0879997 L 9.6889026,-9.9140003 V -11.19 q 4.0600004,-0.058 6.4670004,-0.058 4.321,0 6.525,1.5079997 2.233,1.508 2.233,4.437 0,1.682 -0.899,3.219 -0.87,1.53699996 -3.045,2.55199996 -2.146,1.01500004 -5.713,1.01500004 -0.667,0 -1.044,-0.029 v 4.205 q 0,1.537 -0.087,2.291 l 2.668,-0.145 v 1.305 H 9.6889026 Z M 16.097903,0.35199966 q 1.653,0 3.016,-0.638 1.392,-0.667 2.175,-1.88499996 0.812,-1.247 0.812,-2.9 0,-2.61 -1.595,-3.828 -1.595,-1.2179997 -4.408,-1.2179997 -0.986,0 -1.392,0.4059997 -0.377,0.406 -0.435,0.986 -0.058,0.551 -0.058,2.059 v 6.93099996 q 0.725,0.087 1.885,0.087 z" /><path
         id="path162"
         style=""
         d="m 31.684496,8.1529997 q 1.247,-0.058 1.595,-0.696 0.377,-0.638 0.377,-1.972 v -0.899 l 0.029,-14.7029997 -2.987,0.029 q -1.798,0 -2.581,1.2179997 -0.754,1.189 -0.754,3.799 h -1.073 l 0.174,-6.1189997 h 16.907 l 0.174,6.1189997 h -1.102 q -0.029,-1.827 -0.377,-2.9 -0.319,-1.102 -1.131,-1.624 -0.783,-0.5509997 -2.262,-0.5509997 h -2.465 l -0.029,15.8049997 q 0,1.537 -0.087,2.291 l 2.407,-0.116 v 1.276 h -6.815 z" /><path
         id="path164"
         style=""
         d="m 45.825621,8.1529997 q 1.015,-0.029 1.45,-0.464 0.435,-0.435 0.493,-1.015 0.058,-0.609 0.058,-2.088 v -12.528 q 0,-1.218 0.087,-2.0879997 l -2.088,0.1159997 V -11.19 h 6.525 v 0.957 q -1.015,0.029 -1.45,0.4639997 -0.435,0.435 -0.493,1.044 -0.058,0.58 -0.058,2.059 v 12.325 q 0,1.537 -0.087,2.291 l 2.088,-0.116 v 1.276 h -6.525 z" /><path
         id="path166"
         style=""
         d="m 64.876809,5.7749997 q -2.204,-4.90100004 -3.422,-7.714 -1.218,-2.842 -2.378,-5.974 l -0.029,1.276 q -0.261,8.497 -0.319,12.122 0,0.435 -0.029,0.638 0,0.986 -0.087,1.827 l 2.175,-0.116 v 1.276 h -5.539 v -0.957 q 1.218,-0.029 1.566,-0.667 0.377,-0.667 0.435,-2.001 l 0.638,-15.5149997 -2.088,0.087 V -11.19 h 4.437 l 3.944,9.1059997 q 2.146,5.046 3.306,7.656 h 0.058 q 0.348,-0.87 1.479,-3.741 1.102,-2.78400004 2.523,-6.119 1.653,-3.886 2.842,-6.9019997 h 4.292 v 0.957 q -1.044,-0.029 -1.537,0.5799997 -0.493,0.58 -0.493,2.001 l 0.029,0.58 0.754,13.195 q 0.058,0.667 0.058,1.798 l 2.117,-0.087 v 1.276 h -6.496 v -0.957 q 1.131,-0.029 1.537,-0.638 0.406,-0.638 0.406,-1.972 0,-0.551 -0.029,-0.841 l -0.754,-12.354 q -0.058,0.145 -0.174,0.377 -0.087,0.232 -0.203,0.551 l -6.525,16.124 h -0.87 z" /><path
         id="path168"
         style=""
         d="m 82.188903,8.1529997 q 1.015,-0.029 1.45,-0.464 0.435,-0.435 0.493,-1.015 0.058,-0.609 0.058,-2.088 v -12.528 q 0,-1.218 0.087,-2.0879997 l -2.088,0.1159997 V -11.19 h 6.525 v 0.957 q -1.015,0.029 -1.45,0.4639997 -0.435,0.435 -0.493,1.044 -0.058,0.58 -0.058,2.059 v 12.325 q 0,1.537 -0.087,2.291 l 2.088,-0.116 v 1.276 h -6.525 z" /><path
         id="path170"
         style=""
         d="m 98.71709,9.5739997 q -1.363,0 -2.755,-0.377 -1.363,-0.377 -2.407,-1.102 l 0.145,1.247 h -1.508 l -0.174,-6.177 h 1.131 q 0.145,2.494 1.711,3.857 1.566,1.334 3.973,1.334 1.769,0 2.958,-0.957 1.218,-0.986 1.218,-2.668 0,-1.247 -0.696,-2.117 -0.667,-0.899 -1.682,-1.479 -0.986,-0.60900004 -2.697,-1.39200004 -1.943,-0.92799996 -3.103,-1.62399996 -1.131,-0.696 -1.943,-1.827 -0.812,-1.16 -0.812,-2.842 0,-1.16 0.522,-2.32 0.551,-1.1599997 1.856,-1.9719997 1.334,-0.812 3.509,-0.812 1.305,0 2.61,0.348 1.334,0.319 2.436,1.131 l -0.116,-1.247 h 1.479 v 6.3799997 h -1.044 q -0.145,-2.291 -1.479,-3.857 -1.305,-1.5949997 -3.683,-1.5949997 -1.74,0 -2.726,0.9859997 -0.986,0.957 -0.986,2.407 0,1.16 0.667,2.001 0.667,0.841 1.624,1.392 0.957,0.551 2.697,1.363 1.972,0.899 3.161,1.62399996 1.218,0.725 2.059,1.91400004 0.841,1.16 0.841,2.871 0,1.624 -0.812,2.871 -0.783,1.247 -2.32,1.943 -1.537,0.696 -3.654,0.696 z" /><path
         id="path172"
         style=""
         d="m 108.35687,8.1529997 q 1.015,-0.029 1.45,-0.464 0.435,-0.435 0.493,-1.015 0.058,-0.609 0.058,-2.088 v -12.528 q 0,-1.218 0.087,-2.0879997 l -2.088,0.1159997 V -11.19 h 13.949 l 0.145,5.0749997 h -0.957 q 0,-2.378 -1.044,-3.248 -1.015,-0.8699997 -2.871,-0.8119997 l -2.494,0.058 q -1.044,0.029 -1.508,0.4059997 -0.464,0.348 -0.58,1.015 -0.116,0.638 -0.116,2.03 v 4.64 l 5.452,0.029 -0.203,-2.494 h 1.276 v 6.09 h -0.957 q 0,-1.07300004 -0.261,-1.62400004 -0.261,-0.58 -0.812,-0.754 -0.522,-0.203 -1.479,-0.203 l -0.899,0.029 -2.117,0.087 V 5.7749997 q 0,1.508 -0.087,2.262 l 5.539,-0.087 q 2.03,-0.029 3.103,-1.015 1.073,-1.015 1.073,-3.48 h 0.986 l -0.174,5.655 h -14.964 z" /><path
         id="path174"
         style=""
         d="m 126.36859,8.1529997 q 1.015,-0.029 1.45,-0.464 0.435,-0.435 0.493,-1.015 0.058,-0.609 0.058,-2.088 v -12.528 q 0,-1.218 0.087,-2.0879997 l -2.088,0.1159997 V -11.19 q 3.016,-0.058 4.553,-0.058 1.392,0 2.088,0.029 4.089,0.058 5.974,1.3919997 1.914,1.305 1.914,3.799 0.029,2.001 -1.189,3.596 -1.218,1.59499996 -4.234,2.20399996 0.493,0.377 0.899,0.899 0.406,0.52200004 1.102,1.62400004 l 1.972,3.103 q 0.638,1.015 1.044,1.566 0.435,0.522 1.015,0.87 0.609,0.319 1.479,0.319 v 0.957 h -3.654 q -0.783,-0.667 -1.334,-1.363 -0.522,-0.725 -1.247,-1.856 l -1.943,-3.103 -0.377,-0.609 q -0.464,-0.783 -0.812,-1.27600004 -0.348,-0.493 -0.754,-0.87 -0.261,0.029 -0.812,0.029 -0.783,0 -1.16,-0.029 V 5.6589997 q 0,1.537 -0.087,2.291 l 2.088,-0.116 v 1.276 h -6.525 z m 5.8,-9.193 q 5.916,0 5.916,-4.669 0,-2.204 -1.276,-3.306 -1.276,-1.1019997 -3.915,-1.1019997 -1.015,0 -1.45,0.4059997 -0.435,0.406 -0.493,0.986 -0.058,0.58 -0.058,2.059 v 5.568 q 0.87,0.058 1.276,0.058 z" /></g></g><g
     id="g112"
     transform="matrix(1.16,0,0,1.16,169.73,271.63)"><path
       id="path110"
       d="m 39.765,32.5 v 0.662 H 34.62 L 30.883,23.095 c 2.131,-0.969 3.62,-3.113 3.62,-5.602 0,-3.159 -2.392,-5.766 -5.459,-6.114 V 9.656 C 29.495,9.649 29.859,9.283 29.859,8.83 V 4.481 c 0,-0.457 -0.371,-0.828 -0.828,-0.828 h -1.368 c -0.457,0 -0.828,0.371 -0.828,0.828 V 8.83 c 0,0.453 0.364,0.818 0.815,0.826 v 1.723 c -3.067,0.348 -5.458,2.955 -5.458,6.114 0,2.49 1.488,4.634 3.619,5.602 L 22.074,33.162 H 16.929 V 32.5 h -3.363 v 2.324 h 3.363 v -0.662 h 4.774 l -4.141,11.153 0.791,1.202 -0.859,3.577 0.227,2.873 c 0.003,0.039 0.034,0.07 0.073,0.074 0.039,0.003 0.075,-0.023 0.084,-0.061 l 1.264,-5.263 4.9,-13.554 h 3.248 v 2.292 c 0,0.546 0.443,0.988 0.988,0.988 h 0.138 c 0.546,0 0.988,-0.442 0.988,-0.988 v -2.292 h 3.248 l 4.9,13.554 v 0 l 1.263,5.263 c 0.009,0.038 0.045,0.064 0.084,0.061 0.039,-0.003 0.07,-0.034 0.074,-0.074 l 0.227,-2.875 -0.859,-3.576 0.79,-1.201 -4.14,-11.153 h 4.774 v 0.662 h 3.363 V 32.5 Z M 31.812,17.493 c 0,1.672 -1.19,3.071 -2.768,3.394 v -6.789 c 1.578,0.324 2.768,1.723 2.768,3.395 z m -4.163,-3.395 v 6.789 c -1.577,-0.324 -2.767,-1.723 -2.767,-3.394 0,-1.672 1.19,-3.071 2.767,-3.395 z m 1.754,19.064 V 30.87 c 0,-0.546 -0.443,-0.988 -0.988,-0.988 h -0.138 c -0.546,0 -0.988,0.442 -0.988,0.988 v 2.292 h -2.887 l 3.448,-9.539 c 0.164,0.013 0.328,0.025 0.495,0.025 0.167,0 0.331,-0.012 0.495,-0.025 l 3.448,9.539 z"
       transform="translate(-28.35,-28.35)"
       style="opacity:1;fill:#ffffff;fill-rule:nonzero;stroke:none;stroke-width:1;stroke-linecap:butt;stroke-linejoin:miter;stroke-miterlimit:4;stroke-dasharray:none;stroke-dashoffset:0" /></g><g
     id="g116"
     transform="matrix(1.87,0,0,-0.4,162.25,259.6)"><path
       id="line114"
       d="M -75,0 H 75"
       style="opacity:1;fill:#ffffff;fill-rule:nonzero;stroke:#ffffff;stroke-width:2;stroke-linecap:butt;stroke-linejoin:miter;stroke-miterlimit:4;stroke-dasharray:none;stroke-dashoffset:0" /></g></svg>